<?xml version="1.0" encoding="us-ascii" standalone="no"?><svg xmlns="http://www.w3.org/2000/svg" xmlns:xlink="http://www.w3.org/1999/xlink" contentStyleType="text/css" height="333px" preserveAspectRatio="none" style="width:1490px;height:333px;background:#FFFFFF;" version="1.1" viewBox="0 0 1490 333" width="1490px" zoomAndPan="magnify"><defs/><g><!--class users--><g id="elem_users"><rect codeLine="1" fill="#F1F1F1" height="64.2969" id="users" rx="2.5" ry="2.5" style="stroke:#181818;stroke-width:0.5;" width="148" x="45.5" y="15.5"/><ellipse cx="96.75" cy="31.5" fill="#ADD1B2" rx="11" ry="11" style="stroke:#181818;stroke-width:1.0;"/><path d="M99.0938,27.1719 C98.1563,26.7344 97.5625,26.5938 96.6875,26.5938 C94.0625,26.5938 92.0625,28.6719 92.0625,31.3906 L92.0625,32.5156 C92.0625,35.0938 94.1719,36.9844 97.0625,36.9844 C98.2813,36.9844 99.4375,36.6875 100.1875,36.1406 C100.7656,35.7344 101.0938,35.2813 101.0938,34.8906 C101.0938,34.4375 100.7031,34.0469 100.2344,34.0469 C100.0156,34.0469 99.8125,34.125 99.625,34.3125 C99.1719,34.7969 99.1719,34.7969 98.9844,34.8906 C98.5625,35.1563 97.875,35.2813 97.1094,35.2813 C95.0625,35.2813 93.7656,34.1875 93.7656,32.4844 L93.7656,31.3906 C93.7656,29.6094 95.0156,28.2969 96.75,28.2969 C97.3281,28.2969 97.9375,28.4531 98.4063,28.7031 C98.8906,28.9844 99.0625,29.2031 99.1563,29.6094 C99.2188,30.0156 99.25,30.1406 99.3906,30.2656 C99.5313,30.4063 99.7656,30.5156 99.9844,30.5156 C100.25,30.5156 100.5156,30.375 100.6875,30.1563 C100.7969,30 100.8281,29.8125 100.8281,29.3906 L100.8281,27.9688 C100.8281,27.5313 100.8125,27.4063 100.7188,27.25 C100.5625,26.9844 100.2813,26.8438 99.9844,26.8438 C99.6875,26.8438 99.4844,26.9375 99.2656,27.25 L99.0938,27.1719 Z " fill="#000000"/><text fill="#000000" font-family="sans-serif" font-size="14" lengthAdjust="spacing" textLength="37" x="117.25" y="36.3467">users</text><line style="stroke:#181818;stroke-width:0.5;" x1="46.5" x2="192.5" y1="47.5" y2="47.5"/><line style="stroke:#181818;stroke-width:0.5;" x1="46.5" x2="192.5" y1="55.5" y2="55.5"/><ellipse cx="56.5" cy="69.1484" fill="#84BE84" rx="3" ry="3" style="stroke:#038048;stroke-width:1.0;"/><text fill="#000000" font-family="sans-serif" font-size="14" lengthAdjust="spacing" textLength="122" x="65.5" y="72.4951">userId: TEXT (PK)</text></g><!--class channels--><g id="elem_channels"><rect codeLine="4" fill="#F1F1F1" height="64.2969" id="channels" rx="2.5" ry="2.5" style="stroke:#181818;stroke-width:0.5;" width="174" x="228.5" y="15.5"/><ellipse cx="279.75" cy="31.5" fill="#ADD1B2" rx="11" ry="11" style="stroke:#181818;stroke-width:1.0;"/><path d="M282.0938,27.1719 C281.1563,26.7344 280.5625,26.5938 279.6875,26.5938 C277.0625,26.5938 275.0625,28.6719 275.0625,31.3906 L275.0625,32.5156 C275.0625,35.0938 277.1719,36.9844 280.0625,36.9844 C281.2813,36.9844 282.4375,36.6875 283.1875,36.1406 C283.7656,35.7344 284.0938,35.2813 284.0938,34.8906 C284.0938,34.4375 283.7031,34.0469 283.2344,34.0469 C283.0156,34.0469 282.8125,34.125 282.625,34.3125 C282.1719,34.7969 282.1719,34.7969 281.9844,34.8906 C281.5625,35.1563 280.875,35.2813 280.1094,35.2813 C278.0625,35.2813 276.7656,34.1875 276.7656,32.4844 L276.7656,31.3906 C276.7656,29.6094 278.0156,28.2969 279.75,28.2969 C280.3281,28.2969 280.9375,28.4531 281.4063,28.7031 C281.8906,28.9844 282.0625,29.2031 282.1563,29.6094 C282.2188,30.0156 282.25,30.1406 282.3906,30.2656 C282.5313,30.4063 282.7656,30.5156 282.9844,30.5156 C283.25,30.5156 283.5156,30.375 283.6875,30.1563 C283.7969,30 283.8281,29.8125 283.8281,29.3906 L283.8281,27.9688 C283.8281,27.5313 283.8125,27.4063 283.7188,27.25 C283.5625,26.9844 283.2813,26.8438 282.9844,26.8438 C282.6875,26.8438 282.4844,26.9375 282.2656,27.25 L282.0938,27.1719 Z " fill="#000000"/><text fill="#000000" font-family="sans-serif" font-size="14" lengthAdjust="spacing" textLength="63" x="300.25" y="36.3467">channels</text><line style="stroke:#181818;stroke-width:0.5;" x1="229.5" x2="401.5" y1="47.5" y2="47.5"/><line style="stroke:#181818;stroke-width:0.5;" x1="229.5" x2="401.5" y1="55.5" y2="55.5"/><ellipse cx="239.5" cy="69.1484" fill="#84BE84" rx="3" ry="3" style="stroke:#038048;stroke-width:1.0;"/><text fill="#000000" font-family="sans-serif" font-size="14" lengthAdjust="spacing" textLength="148" x="248.5" y="72.4951">channelId: TEXT (PK)</text></g><!--class orders--><g id="elem_orders"><rect codeLine="7" fill="#F1F1F1" height="178.375" id="orders" rx="2.5" ry="2.5" style="stroke:#181818;stroke-width:0.5;" width="421" x="7" y="148"/><ellipse cx="190.25" cy="164" fill="#ADD1B2" rx="11" ry="11" style="stroke:#181818;stroke-width:1.0;"/><path d="M192.5938,159.6719 C191.6563,159.2344 191.0625,159.0938 190.1875,159.0938 C187.5625,159.0938 185.5625,161.1719 185.5625,163.8906 L185.5625,165.0156 C185.5625,167.5938 187.6719,169.4844 190.5625,169.4844 C191.7813,169.4844 192.9375,169.1875 193.6875,168.6406 C194.2656,168.2344 194.5938,167.7813 194.5938,167.3906 C194.5938,166.9375 194.2031,166.5469 193.7344,166.5469 C193.5156,166.5469 193.3125,166.625 193.125,166.8125 C192.6719,167.2969 192.6719,167.2969 192.4844,167.3906 C192.0625,167.6563 191.375,167.7813 190.6094,167.7813 C188.5625,167.7813 187.2656,166.6875 187.2656,164.9844 L187.2656,163.8906 C187.2656,162.1094 188.5156,160.7969 190.25,160.7969 C190.8281,160.7969 191.4375,160.9531 191.9063,161.2031 C192.3906,161.4844 192.5625,161.7031 192.6563,162.1094 C192.7188,162.5156 192.75,162.6406 192.8906,162.7656 C193.0313,162.9063 193.2656,163.0156 193.4844,163.0156 C193.75,163.0156 194.0156,162.875 194.1875,162.6563 C194.2969,162.5 194.3281,162.3125 194.3281,161.8906 L194.3281,160.4688 C194.3281,160.0313 194.3125,159.9063 194.2188,159.75 C194.0625,159.4844 193.7813,159.3438 193.4844,159.3438 C193.1875,159.3438 192.9844,159.4375 192.7656,159.75 L192.5938,159.6719 Z " fill="#000000"/><text fill="#000000" font-family="sans-serif" font-size="14" lengthAdjust="spacing" textLength="46" x="210.75" y="168.8467">orders</text><line style="stroke:#181818;stroke-width:0.5;" x1="8" x2="427" y1="180" y2="180"/><rect fill="none" height="6" style="stroke:#C82930;stroke-width:1.0;" width="6" x="15" y="190.6484"/><text fill="#000000" font-family="sans-serif" font-size="14" lengthAdjust="spacing" textLength="89" x="27" y="196.9951">userId: TEXT</text><rect fill="none" height="6" style="stroke:#C82930;stroke-width:1.0;" width="6" x="15" y="206.9453"/><text fill="#000000" font-family="sans-serif" font-size="14" lengthAdjust="spacing" textLength="115" x="27" y="213.292">channelId: TEXT</text><rect fill="none" height="6" style="stroke:#C82930;stroke-width:1.0;" width="6" x="15" y="223.2422"/><text fill="#000000" font-family="sans-serif" font-size="14" lengthAdjust="spacing" textLength="135" x="27" y="229.5889">orderDetails: TEXT</text><rect fill="none" height="6" style="stroke:#C82930;stroke-width:1.0;" width="6" x="15" y="239.5391"/><text fill="#000000" font-family="sans-serif" font-size="14" lengthAdjust="spacing" textLength="120" x="27" y="245.8857">orderDate: TEXT</text><line style="stroke:#181818;stroke-width:0.5;" x1="8" x2="427" y1="253.1875" y2="253.1875"/><ellipse cx="18" cy="266.8359" fill="#84BE84" rx="3" ry="3" style="stroke:#038048;stroke-width:1.0;"/><text fill="#000000" font-family="sans-serif" font-size="14" lengthAdjust="spacing" textLength="247" x="27" y="270.1826">id: INTEGER (PK, AUTOINCREMENT)</text><rect fill="#F24D5C" height="6" style="stroke:#C82930;stroke-width:1.0;" width="6" x="15" y="280.1328"/><text fill="#000000" font-family="sans-serif" font-size="14" lengthAdjust="spacing" textLength="238" x="27" y="286.4795">status: TEXT (DEFAULT 'Pending')</text><ellipse cx="18" cy="299.4297" fill="#84BE84" rx="3" ry="3" style="stroke:#038048;stroke-width:1.0;"/><text fill="#000000" font-family="sans-serif" font-size="14" lengthAdjust="spacing" textLength="317" x="27" y="302.7764">Foreign key (userId) references users(userId)</text><ellipse cx="18" cy="315.7266" fill="#84BE84" rx="3" ry="3" style="stroke:#038048;stroke-width:1.0;"/><text fill="#000000" font-family="sans-serif" font-size="14" lengthAdjust="spacing" textLength="395" x="27" y="319.0732">Foreign key (channelId) references channels(channelId)</text></g><!--class sqlite_sequence--><g id="elem_sqlite_sequence"><rect codeLine="17" fill="#F1F1F1" height="80.5938" id="sqlite_sequence" rx="2.5" ry="2.5" style="stroke:#181818;stroke-width:0.5;" width="1046" x="437.5" y="7"/><ellipse cx="898.75" cy="23" fill="#ADD1B2" rx="11" ry="11" style="stroke:#181818;stroke-width:1.0;"/><path d="M901.0938,18.6719 C900.1563,18.2344 899.5625,18.0938 898.6875,18.0938 C896.0625,18.0938 894.0625,20.1719 894.0625,22.8906 L894.0625,24.0156 C894.0625,26.5938 896.1719,28.4844 899.0625,28.4844 C900.2813,28.4844 901.4375,28.1875 902.1875,27.6406 C902.7656,27.2344 903.0938,26.7813 903.0938,26.3906 C903.0938,25.9375 902.7031,25.5469 902.2344,25.5469 C902.0156,25.5469 901.8125,25.625 901.625,25.8125 C901.1719,26.2969 901.1719,26.2969 900.9844,26.3906 C900.5625,26.6563 899.875,26.7813 899.1094,26.7813 C897.0625,26.7813 895.7656,25.6875 895.7656,23.9844 L895.7656,22.8906 C895.7656,21.1094 897.0156,19.7969 898.75,19.7969 C899.3281,19.7969 899.9375,19.9531 900.4063,20.2031 C900.8906,20.4844 901.0625,20.7031 901.1563,21.1094 C901.2188,21.5156 901.25,21.6406 901.3906,21.7656 C901.5313,21.9063 901.7656,22.0156 901.9844,22.0156 C902.25,22.0156 902.5156,21.875 902.6875,21.6563 C902.7969,21.5 902.8281,21.3125 902.8281,20.8906 L902.8281,19.4688 C902.8281,19.0313 902.8125,18.9063 902.7188,18.75 C902.5625,18.4844 902.2813,18.3438 901.9844,18.3438 C901.6875,18.3438 901.4844,18.4375 901.2656,18.75 L901.0938,18.6719 Z " fill="#000000"/><text fill="#000000" font-family="sans-serif" font-size="14" lengthAdjust="spacing" textLength="115" x="919.25" y="27.8467">sqlite_sequence</text><line style="stroke:#181818;stroke-width:0.5;" x1="438.5" x2="1482.5" y1="39" y2="39"/><text fill="#000000" font-family="sans-serif" font-size="14" lengthAdjust="spacing" textLength="646" x="443.5" y="55.9951">// Il s&#8217;agit d&#8217;une table syst&#232;me utilis&#233;e par SQLite pour g&#233;rer les champs AUTOINCREMENT.</text><text fill="#000000" font-family="sans-serif" font-size="14" lengthAdjust="spacing" textLength="1034" x="443.5" y="72.292">// Elle n&#8217;est pas directement li&#233;e &#224; la logique de votre application, mais elle est essentielle pour les m&#233;canismes internes de la base de donn&#233;es.</text><line style="stroke:#181818;stroke-width:0.5;" x1="438.5" x2="1482.5" y1="79.5938" y2="79.5938"/></g><!--link users to orders--><g id="link_users_orders"><path codeLine="22" d="M135.903,79.883 C145.711,98.649 155.0023,116.425 167.7333,140.783 " fill="none" id="users-to-orders" style="stroke:#181818;stroke-width:1.0;"/><line style="stroke:#181818;stroke-width:1.0;" x1="167.7333" x2="178.529" y1="140.783" y2="147.873"/><line style="stroke:#181818;stroke-width:1.0;" x1="167.7333" x2="164.349" y1="140.783" y2="147.873"/><line style="stroke:#181818;stroke-width:1.0;" x1="167.7333" x2="171.439" y1="140.783" y2="147.873"/></g><!--link channels to orders--><g id="link_channels_orders"><path codeLine="23" d="M299.097,79.883 C289.289,98.649 279.9977,116.425 267.2667,140.783 " fill="none" id="channels-to-orders" style="stroke:#181818;stroke-width:1.0;"/><line style="stroke:#181818;stroke-width:1.0;" x1="267.2667" x2="270.651" y1="140.783" y2="147.873"/><line style="stroke:#181818;stroke-width:1.0;" x1="267.2667" x2="256.471" y1="140.783" y2="147.873"/><line style="stroke:#181818;stroke-width:1.0;" x1="267.2667" x2="263.561" y1="140.783" y2="147.873"/></g><!--SRC=[RPBFJi904CRlVOgvGSE_kpSYnH0H4KlYpIpjM2TkjsLdQqA8YQ_XpQCyHz_49t6xXGBgRNRsczzy-JAH5CnGC6g6hGVGSVKale0mU0YXFR_slJSlSgheMIY5yY3SF__NPZe-8ibA9hCmk0eMbQeBmsLuEvbTBeARO1RwLjCxM-iQl_2kvwWZD88adxJP25FmmSOe60-Nqn1QSrGngQJbdymAWyrW1yQPHaeKlE06shK37pG-eKOLuJwNmyVVYSRYsT0XffFl9XPUIpBuoBWkAh7BPp20YGJ-VlyG2Hc8RL4e12DM4e4tRCgl5A4m98dB7K8kDDpVJIq7ygpGa9GxZHfalJhD-JpUVhqYa9QcB1lPM0H3J1eZWoag0v8gSFa9Ke3C4hBk84PupOn647akAHA6CjM5L103LgoAWynsdDpRUQbCfEKk4eeujJKfWrhPmj8iUoNOWUDCARkH-pOOhpw-Nc-xFnglkRDZxmS0]--></g></svg>